<?xml version="1.0" encoding="utf-8"?>
<!-- Generator: Adobe Illustrator 26.0.1, SVG Export Plug-In . SVG Version: 6.00 Build 0)  -->
<svg version="1.1" id="Extension" xmlns="http://www.w3.org/2000/svg" xmlns:xlink="http://www.w3.org/1999/xlink" x="0px" y="0px"
	viewBox="0 0 64 64" style="enable-background:new 0 0 64 64;" xml:space="preserve">
<style type="text/css">
	.st0{fill:#10B0A2;stroke:#10B0A2;stroke-width:2;stroke-miterlimit:10;}
</style>
<g>
	<path class="st0" d="M60.7,3.3c-0.9-0.9-2.1-1.2-3.3-0.9L4.8,17.3C3,17.8,2,19.7,2.5,21.5c0.3,0.9,0.9,1.7,1.8,2.1l25.4,10.2
		c0.2,0.1,0.4,0.3,0.5,0.5l10.2,25.4c0.6,1.2,1.7,1.9,3,1.9c0.1,0,0.2,0,0.3,0c1.4-0.1,2.6-1.1,3-2.5L61.5,6.6
		C61.9,5.5,61.5,4.2,60.7,3.3z M59.4,6L44.5,58.6c-0.2,0.6-0.8,0.9-1.4,0.8c-0.3-0.1-0.6-0.3-0.7-0.6L32.2,33.4l0,0l12.2-12.2
		c0.4-0.4,0.4-1.2,0-1.6c-0.4-0.4-1.2-0.4-1.6,0L30.6,31.8c0,0,0,0,0,0L5.2,21.6c-0.6-0.3-0.8-0.9-0.5-1.5c0.1-0.3,0.4-0.5,0.7-0.6
		L58,4.6c0.1,0,0.2,0,0.3,0c0.3,0,0.6,0.1,0.8,0.3C59.4,5.2,59.5,5.6,59.4,6L59.4,6z"/>
</g>
</svg>
